<svg width="54px" height="70px" viewBox="0 0 54 70" version="1.1" xmlns="http://www.w3.org/2000/svg" xmlns:xlink="http://www.w3.org/1999/xlink" data-reactroot=""><g id="Email-Transaction-ID--And-Zero-State" stroke="none" stroke-width="1" fill="none" fill-rule="evenodd"><g id="zerounread" transform="translate(-773.000000, -439.000000)" fill="#009CDE" fill-rule="nonzero"><g id="Group-2" transform="translate(773.000000, 439.000000)"><g id="Group-7" transform="translate(0.500000, 0.000000)"><path d="M30.6987656,38.4511753 C30.6151442,38.5890523 30.5157524,38.7528814 30.4016719, 38.9408534 C29.9788538,39.6375361 29.5071817,40.413827 28.9985518, 41.2498279 C27.5452993,43.6384416 26.0869982,46.0270732 24.7187908, 48.2565825 C24.6567289,48.3577074 24.6567289,48.3577074 24.5946596, 48.4588211 C22.8436941,51.3110535 21.3786485,53.676669 20.2933754, 55.398642 C19.6764046,56.3775728 19.1898824,57.1361744 18.8447364, 57.6559845 C18.6599892,57.9342246 18.515309,58.1447401 18.4102583, 58.2875008 C18.3504441,58.3687865 18.3016112,58.4308095 18.2594123, 58.477692 C18.2204708,58.5203945 18.2204708,58.5203945 18.1508916, 58.5786962 C18.0372929,58.6993769 18.0372929,58.6993769 17.4790262, 58.5346246 C17.3907456,58.4454785 15.7005522,56.740011 12.9395102, 53.9540665 C9.53198535,50.5158188 9.53198535,50.5158188 8.39616456, 49.3697642 C8.20178008,49.1736283 8.20319988,48.857049 8.39933577, 48.6626646 C8.59547165,48.4682801 8.91205096,48.4696999 9.10643544, 48.6658358 C10.2422571,49.8118912 10.2422571,49.8118912 13.649722, 53.2500784 C15.6797889,55.298455 17.1303501,56.7621152 17.7917554, 57.429522 C17.8562357,57.3354002 17.9296489,57.2263401 18.0116563, 57.1028321 C18.3514972,56.5910118 18.8342835,55.8382353 19.4473792, 54.8654531 C20.5301177,53.1475016 21.9933544,50.7848069 23.7424344, 47.935646 C23.804463,47.8345985 23.804463,47.8345985 23.866485,47.7335387 C25.2339455, 45.5052465 26.6916072,43.1176622 28.1442443,40.73006 C28.6526757,39.8943853 29.1241585, 39.118406 29.546793,38.4220258 C29.6869285,38.1911227 29.8048754,37.9966896 29.898625, 37.8420862 L29.2681006,33.5869902 C29.2524296,33.4812342 29.2710692,33.3732397 29.3212841, 33.2788554 L44.8622841,4.06785542 C44.9919851,3.82406813 45.2947573,3.73158299 45.5385446, 3.86128407 C45.7823319,3.99098515 45.874817,4.29375729 45.7451159,4.53754458 L30.2814264, 33.6032311 L30.8306157,37.3094368 L34.3647745,35.813261 C34.6190679,35.7056066 34.9124846, 35.8244811 35.020139,36.0787745 C35.1277934,36.3330679 35.0089189,36.6264846 34.7546255, 36.734139 L30.6987656,38.4511753 Z M45.8451,14.2622795 C45.823613,14.1534735 45.8380124, 14.0368594 45.8940676,13.9312627 L51.4510366,3.46305926 L47.0772994,0.932481157 C46.8382809, 0.794188714 46.7566264,0.488317814 46.8949188,0.249299381 C47.0332113,0.0102809477 47.3390822, -0.0713736004 47.5781006,0.066918843 L52.3691006,2.83891884 C52.6019718,2.97365461 52.6864786, 3.26850341 52.5603324,3.5061373 L46.8451,14.2724768 L46.8451,69.1239 C46.8451,69.4000424 46.6212424, 69.6239 46.3451,69.6239 L0.5001,69.6239 C0.223957625,69.6239 0.0001,69.4000424 0.0001,69.1239 L0.0001, 14.1799 C0.0001,13.9037576 0.223957625,13.6799 0.5001,13.6799 L37.9401,13.6799 C38.2162424,13.6799 38.4401, 13.9037576 38.4401,14.1799 C38.4401,14.4560424 38.2162424,14.6799 37.9401,14.6799 L1.0001,14.6799 L1.0001, 68.6239 L45.8451,68.6239 L45.8451,14.2622795 Z M48.524196,5.44155589 C48.7650718,5.57658732 48.8508755, 5.88132029 48.7158441,6.12219604 C48.5808127,6.36307178 48.2760797,6.44887555 48.035204,6.31384411 L45.097204, 4.66684411 C44.8563282,4.53181268 44.7705245,4.22707971 44.9055559,3.98620396 C45.0405873,3.74532822 45.3453203, 3.65952445 45.586196,3.79455589 L48.524196,5.44155589 Z M43.5102834,18.3868567 C43.6399838,18.143069 43.9427557, 18.050583 44.1865433,18.1802834 C44.430331,18.3099838 44.522817,18.6127557 44.3931166,18.8565433 L35.0891166, 36.3445433 C34.9594162,36.588331 34.6566443,36.680817 34.4128567,36.5511166 C34.169069,36.4214162 34.076583, 36.1186443 34.2062834,35.8748567 L43.5102834,18.3868567 Z" id="Combined-Shape"></path></g></g></g></g></svg>