<svg xmlns="http://www.w3.org/2000/svg" viewBox="0 0 24 24"><path d="M14.654 3.078a.5.5 0 0 1 .34.543l-.021.088-5.586 16.938a.5.5 0 0 1-.97-.225l.02-.088 5.586-16.938a.5.5 0 0 1 .631-.318zM7.93 7.69a.5.5 0 0 1-.017.64l-.066.062-4.51 3.561 4.515 3.658a.5.5 0 0 1 .124.629l-.05.075a.5.5 0 0 1-.628.124l-.075-.05-5-4.051a.5.5 0 0 1-.064-.716l.068-.065 5-3.95a.5.5 0 0 1 .703.083zm8.207 0a.5.5 0 0 1 .702-.082l5 3.95.068.064a.5.5 0 0 1-.063.716l-5 4.05-.075.05a.5.5 0 0 1-.629-.123l-.05-.075a.5.5 0 0 1 .124-.629l4.515-3.658-4.51-3.56-.065-.063a.5.5 0 0 1-.017-.64z"/></svg>