<svg xmlns="http://www.w3.org/2000/svg" viewBox="0 0 24 24"><path fill="#2C2E2F" d="M6.5 4a.5.5 0 0 0-.5.5v15a.5.5 0 0 0 .5.5h11a.5.5 0 0 0 .5-.5v-15a.5.5 0 0 0-.5-.5h-11zm0-1h11A1.5 1.5 0 0 1 19 4.5v15a1.5 1.5 0 0 1-1.5 1.5h-11A1.5 1.5 0 0 1 5 19.5v-15A1.5 1.5 0 0 1 6.5 3zM9 7v2h2V7H9zm-.5-1h3a.5.5 0 0 1 .5.5v3a.5.5 0 0 1-.5.5h-3a.5.5 0 0 1-.5-.5v-3a.5.5 0 0 1 .5-.5zM8 13a.5.5 0 1 1 0-1h8a.5.5 0 1 1 0 1H8zm0 2.5a.5.5 0 1 1 0-1h8a.5.5 0 1 1 0 1H8zm2.5 2.5a.5.5 0 1 1 0-1H16a.5.5 0 1 1 0 1h-5.5z"/></svg>