<svg viewBox="0 0 48 48" xmlns="http://www.w3.org/2000/svg"><g clip-rule="evenodd" fill="#fff" fill-rule="evenodd"><path d="M38.9 13.2c.6-3.4 0-5.8-1.9-7.9C35.1 3 31.4 2 26.6 2H13.1c-1 0-1.8.7-2 1.7L5.4 39.8c-.1.7.4 1.3 1.1 1.3h8.4l-.6 3.7c-.1.7.4 1.2 1 1.2h7.1c.9 0 1.6-.7 1.7-1.4l.1-.3 1.3-8.4.1-.4c.1-.8.9-1.4 1.7-1.4h1.1c6.9 0 12.3-2.8 13.9-10.9.7-3.3.3-6.2-1.4-8.2-.5-.9-1.2-1.4-2-1.8" fill-opacity=".68"/><path d="M38.9 13.2c.6-3.4 0-5.8-1.9-7.9C35.1 3 31.4 2 26.6 2H13.1c-1 0-1.8.7-2 1.7L5.4 39.8c-.1.7.4 1.3 1.1 1.3h8.4L17 27.7l-.1.4c.2-1 1.1-1.7 2-1.7h4c7.9 0 14-3.2 15.9-12.4 0-.3.1-.6.1-.8" fill-opacity=".7"/><path d="M19.4 13.2c.1-.6.4-1 1-1.3.2-.1.4-.2.8-.2h10.7l3.6.3c.3 0 .6.1.9.2s.6.1.9.2c.1 0 .2.1.4.1.6.2 1 .3 1.4.7.6-3.4 0-5.8-1.9-7.9C35.2 3 31.5 2 26.7 2H13.1c-1 0-1.8.7-2 1.7L5.4 39.8c-.1.7.4 1.3 1.1 1.3h8.4z"/></g></svg>